<?xml version="1.0" encoding="UTF-8" standalone="no"?>
<!DOCTYPE svg PUBLIC "-//W3C//DTD SVG 1.1//EN"
 "http://www.w3.org/Graphics/SVG/1.1/DTD/svg11.dtd">
<!-- Generated by graphviz version 2.38.0 (20140413.2041)
 -->
<!-- Title: G Pages: 1 -->
<svg width="239pt" height="150pt"
 viewBox="0.00 0.00 239.00 150.00" xmlns="http://www.w3.org/2000/svg" xmlns:xlink="http://www.w3.org/1999/xlink">
<g id="graph0" class="graph" transform="scale(1 1) rotate(0) translate(4 146)">
<title>G</title>
<polygon fill="white" stroke="none" points="-4,4 -4,-146 235,-146 235,4 -4,4"/>
<g id="clust1" class="cluster"><title>cluster_Global</title>
<path fill="none" stroke="gray" d="M20,-8C20,-8 211,-8 211,-8 217,-8 223,-14 223,-20 223,-20 223,-122 223,-122 223,-128 217,-134 211,-134 211,-134 20,-134 20,-134 14,-134 8,-128 8,-122 8,-122 8,-20 8,-20 8,-14 14,-8 20,-8"/>
<text text-anchor="middle" x="115.5" y="-121.2" font-family="Times,serif" font-size="11.00" fill="gray">Global</text>
</g>
<!-- \\SqueakyMindsPhpHelper -->
<g id="node1" class="node"><title>\\SqueakyMindsPhpHelper</title>
<polygon fill="none" stroke="black" points="194.5,-106 36.5,-106 36.5,-70 194.5,-70 194.5,-106"/>
<text text-anchor="middle" x="115.5" y="-85.2" font-family="Courier,monospace" font-size="11.00">SqueakyMindsPhpHelper</text>
</g>
<!-- \\SqueakyMindsPhpHelper_lists -->
<g id="node2" class="node"><title>\\SqueakyMindsPhpHelper_lists</title>
<polygon fill="none" stroke="black" points="215,-52 16,-52 16,-16 215,-16 215,-52"/>
<text text-anchor="middle" x="115.5" y="-31.2" font-family="Courier,monospace" font-size="11.00">SqueakyMindsPhpHelper_lists</text>
</g>
</g>
</svg>
